<svg xmlns="http://www.w3.org/2000/svg" width="200" height="200" fill="#fff"><g><path d="M31.2 24.9l-2.9-.3c-.2 0-.3-.1-.4-.3l-1-2.5c-.2-.4-.8-.4-.9 0l-1 2.5c-.1.2-.2.3-.4.3l-2.9.3c-.4 0-.6.6-.3.9l2.2 1.9c.1.1.2.3.2.5l-.8 2.6c-.1.4.4.8.7.6l2.4-1.4a.45.45 0 0 1 .5 0l2.4 1.4c.4.2.8-.1.7-.6l-.6-2.7c0-.2 0-.4.2-.5l2.2-1.9c.3-.3.1-.8-.3-.8z"/><animate accumulate="none" additive="replace" attributeName="opacity" begin="0s" calcMode="linear" dur="1s" fill="remove" repeatCount="indefinite" restart="always" values="0;1;0"/></g><g><path d="M56.9 113l-4-.4c-.3 0-.5-.2-.6-.4l-1.4-3.4c-.2-.6-1-.6-1.3 0l-1.4 3.4c-.1.2-.3.4-.6.4l-4 .4c-.6.1-.8.8-.4 1.2l3 2.6c.2.2.3.4.2.7l-.9 3.7c-.1.6.5 1.1 1 .7l3.3-2c.2-.1.5-.1.7 0l3.3 2c.5.3 1.2-.2 1-.7l-.9-3.7c-.1-.3 0-.5.2-.7l3-2.6c.6-.4.4-1.1-.2-1.2z"/><animate accumulate="none" additive="replace" attributeName="opacity" begin="1s" calcMode="linear" dur="1s" fill="remove" repeatCount="indefinite" restart="always" values="0;1;0"/></g><g><path d="M149.4 163.4l-1.8-.2c-.1 0-.2-.1-.3-.2l-.6-1.5c-.1-.3-.5-.3-.6 0l-.6 1.5c0 .1-.1.2-.3.2l-1.8.2c-.3 0-.4.4-.2.5l1.3 1.2c.1.1.1.2.1.3l-.4 1.6c-.1.3.2.5.5.3l1.5-.9c.1-.1.2-.1.3 0l1.5.9c.2.1.5-.1.5-.3l-.4-1.6c0-.1 0-.2.1-.3l1.3-1.2c.3-.1.2-.5-.1-.5z"/><animate accumulate="none" additive="replace" attributeName="opacity" begin="0.4s" calcMode="linear" dur="1s" fill="remove" repeatCount="indefinite" restart="always" values="0;1;0"/></g><g><path d="M179.6 24.6l-3.3-.3c-.2 0-.4-.1-.5-.4l-1.2-2.9a.59.59 0 0 0-1.1 0l-1.2 2.9c-.1.2-.3.3-.5.4l-3.3.3c-.5 0-.7.7-.3 1l2.5 2.2c.2.1.2.4.2.6l-.7 3.1c-.1.5.4.9.8.6l2.8-1.6c.2-.1.4-.1.6 0l2.8 1.6c.4.3 1-.1.8-.6l-.7-3.1c0-.2 0-.4.2-.6l2.5-2.2c.3-.3.1-.9-.4-1z"/><animate accumulate="none" additive="replace" attributeName="opacity" begin="0.8s" calcMode="linear" dur="1s" fill="remove" repeatCount="indefinite" restart="always" values="0;1;0"/></g><g><path d="M34 174l-2.9-.3c-.2 0-.3-.1-.4-.3l-1-2.5c-.2-.4-.8-.4-.9 0l-1 2.5c-.1.2-.2.3-.4.3l-2.9.3c-.4 0-.6.6-.3.9l2.2 1.9c.1.1.2.3.2.5l-.7 2.7c-.1.4.3.8.7.5l2.4-1.4a.45.45 0 0 1 .5 0l2.4 1.4c.4.2.8-.1.7-.5l-.6-2.7c0-.2 0-.4.2-.5l2.2-1.9c.2-.3 0-.8-.4-.9z"/><animate accumulate="none" additive="replace" attributeName="opacity" begin="0.7s" calcMode="linear" dur="1s" fill="remove" repeatCount="indefinite" restart="always" values="0;1;0"/></g><g><path d="M88.4 11.8l-2.6-.2c-.2 0-.3-.1-.4-.3l-1-2.3c-.2-.4-.7-.4-.8 0l-.9 2.3c-.1.2-.2.3-.4.3l-2.6.2c-.4 0-.6.5-.2.8l2 1.8a.76.76 0 0 1 .2.4l-.7 2.4c-.1.4.3.7.7.5l2.2-1.3a.45.45 0 0 1 .5 0l2.2 1.3c.4.2.8-.1.7-.5l-.6-2.4c0-.2 0-.3.2-.4l2-1.8c.1-.3-.1-.8-.5-.8z"/><animate accumulate="none" additive="replace" attributeName="opacity" begin="0.2s" calcMode="linear" dur="1s" fill="remove" repeatCount="indefinite" restart="always" values="0;1;0"/></g><g><path d="M102.1 138.9l-2.6-.2c-.2 0-.3-.1-.4-.3l-1-2.3c-.2-.4-.7-.4-.8 0l-.9 2.3c-.1.2-.2.3-.4.3l-2.6.2c-.4 0-.6.5-.2.8l2 1.8a.76.76 0 0 1 .2.4l-.6 2.4c-.1.4.3.7.7.5l2.2-1.3a.45.45 0 0 1 .5 0l2.2 1.3c.4.2.8-.1.7-.5l-.6-2.4c0-.2 0-.3.2-.4l2-1.8c0-.2-.2-.7-.6-.8z"/><animate accumulate="none" additive="replace" attributeName="opacity" begin="0.8s" calcMode="linear" dur="1s" fill="remove" repeatCount="indefinite" restart="always" values="0;1;0"/></g><g><path d="M177.2 87.8l-2.6-.2c-.2 0-.3-.1-.4-.3l-1-2.3c-.2-.4-.7-.4-.8 0l-.9 2.3c-.1.2-.2.3-.4.3l-2.6.2c-.4 0-.6.5-.2.8l2 1.8a.76.76 0 0 1 .2.4l-.6 2.4c-.1.4.3.7.7.5l2.2-1.3a.45.45 0 0 1 .5 0l2.2 1.3c.4.2.8-.1.7-.5l-.6-2.4c0-.2 0-.3.2-.4l2-1.8c0-.2-.2-.8-.6-.8z"/><animate accumulate="none" additive="replace" attributeName="opacity" begin="0.4s" calcMode="linear" dur="1s" fill="remove" repeatCount="indefinite" restart="always" values="0;1;0"/></g><g><path d="M124.7 55.9l-1.7-.2c-.1 0-.2-.1-.3-.2l-.6-1.5c-.1-.2-.2-.2-.4-.2-.1 0-.1.1-.2.2l-.6 1.5c0 .1-.1.2-.3.2l-1.7.2c-.3 0-.4.3-.2.5l1.3 1.1c.1.1.1.2.1.3l-.4 1.6c-.1.3.2.5.4.3l1.4-.8c.1-.1.2-.1.3 0l1.4.8c.2.1.5-.1.4-.3l-.4-1.6c0-.1 0-.2.1-.3l1.3-1.1c.5-.2.4-.5.1-.5z"/><animate accumulate="none" additive="replace" attributeName="opacity" begin="0.2s" calcMode="linear" dur="1s" fill="remove" repeatCount="indefinite" restart="always" values="0;1;0"/></g></svg>